<svg version="1.1" id="Layer_1" xmlns="http://www.w3.org/2000/svg" xmlns:xlink="http://www.w3.org/1999/xlink" x="0px" y="0px"
	 width="100%" viewBox="0 0 350 350" enable-background="new 0 0 350 350" xml:space="preserve">
<path fill="#000000" opacity="1.000000" stroke="none" 
	d="
M229.000000,351.000000 
	C152.666687,351.000000 76.833359,351.000000 1.000031,351.000000 
	C1.000020,234.333374 1.000020,117.666733 1.000010,1.000077 
	C117.666618,1.000052 234.333237,1.000052 350.999878,1.000026 
	C350.999939,117.666595 350.999939,234.333191 350.999969,350.999878 
	C310.500000,351.000000 270.000000,351.000000 229.000000,351.000000 
M135.072891,238.546478 
	C135.377380,238.734451 135.681885,238.922440 136.035858,239.672546 
	C136.290863,240.121368 136.545883,240.570175 136.906723,241.746246 
	C137.598953,242.213486 138.291168,242.680725 139.136230,243.553619 
	C139.307037,243.810257 139.544678,243.962570 139.921082,244.754105 
	C143.571014,247.792252 146.856735,251.733459 152.879303,250.410553 
	C151.427628,245.781265 150.276443,241.754211 148.902573,237.804611 
	C146.189224,230.004242 145.581451,221.962067 150.589752,215.250534 
	C155.527832,208.633133 162.000290,203.173660 167.659180,197.075912 
	C170.649582,193.853577 173.341080,190.353836 176.763535,186.590622 
	C177.449600,183.733032 178.135666,180.875458 179.212265,177.298782 
	C179.087555,174.203278 178.962845,171.107758 178.929886,167.241104 
	C178.272614,165.165680 177.615326,163.090240 176.977432,161.016541 
	C176.977432,161.016541 176.978653,161.035797 176.915314,160.319275 
	C176.526443,159.456375 176.137573,158.593475 175.560074,157.193741 
	C175.313110,156.513840 175.066162,155.833954 175.037567,154.599289 
	C175.355743,154.398651 175.673904,154.197998 175.999313,154.000824 
	C175.999313,154.000824 176.003677,154.006287 176.306198,154.618912 
	C177.909149,155.739334 179.578278,156.776718 181.104706,157.993164 
	C194.797852,168.905685 200.655869,182.370239 197.015915,200.709106 
	C193.472260,206.834656 190.243134,213.170731 186.315125,219.039001 
	C179.522476,229.186874 180.845078,240.566101 190.013596,247.742599 
	C190.987579,248.517212 191.961578,249.291840 193.251144,250.726440 
	C195.855896,251.819855 198.383759,253.574890 201.079178,253.888138 
	C210.915695,255.031296 216.503204,247.008331 219.854324,236.625015 
	C221.104752,232.750687 221.263824,228.524139 221.961990,224.201431 
	C231.894485,230.867523 234.614029,247.670319 229.809387,261.718140 
	C224.797226,274.142853 215.921463,283.151794 204.749939,290.158295 
	C204.039642,290.603821 203.591492,291.467285 202.855438,292.330963 
	C209.390396,293.396576 209.517075,293.716064 224.146545,287.915466 
	C236.143311,283.158661 244.249908,273.765503 251.135727,262.320862 
	C256.533875,255.093460 258.987305,246.654861 261.791260,237.644043 
	C262.524902,226.812576 263.781433,215.984467 263.850769,205.148758 
	C263.925873,193.407623 260.468811,182.284210 255.229645,171.782913 
	C254.797714,170.917160 253.546707,170.460052 252.676285,169.813080 
	C252.128326,170.809128 251.256317,171.751617 251.081543,172.809326 
	C248.853714,186.290756 245.014938,198.804169 231.473862,206.007019 
	C231.473862,206.007019 231.027863,205.933090 230.988083,205.305542 
	C230.939682,204.890411 230.891281,204.475296 231.143753,203.410156 
	C236.718521,196.929199 238.417618,188.835800 239.765686,180.843475 
	C240.527618,176.326233 240.599564,171.128113 239.097183,166.907776 
	C235.686569,157.327042 228.263062,150.675797 220.007782,144.977539 
	C220.007782,144.977539 220.016571,144.949066 219.947876,144.424088 
	C219.664459,144.231354 219.381058,144.038605 218.965530,143.474594 
	C218.833725,143.221725 218.626678,143.074814 217.924088,142.453308 
	C216.995453,141.497787 216.172424,140.402557 215.121811,139.608398 
	C204.775864,131.787811 203.215073,121.406944 205.899872,109.518173 
	C207.617950,101.910286 211.458359,94.701691 209.999664,86.450661 
	C208.276260,76.702255 203.297745,69.285652 195.003052,63.996738 
	C195.003052,63.996738 195.000671,63.989109 194.843811,63.400360 
	C194.467331,63.315128 194.090851,63.229900 193.408997,63.006023 
	C193.408997,63.006023 193.081528,62.933655 192.818298,62.331989 
	C191.887360,62.483284 190.376007,62.342968 190.127686,62.837227 
	C189.144714,64.793617 188.557266,66.948708 187.276947,69.311783 
	C184.553635,72.692917 182.006226,76.236610 179.066574,79.417824 
	C174.433212,84.431877 169.536194,89.202293 164.061432,94.042542 
	C163.302673,94.294395 162.426514,94.380562 161.802612,94.822708 
	C150.566650,102.785225 140.225311,111.630142 132.785965,123.479477 
	C128.994949,129.517776 125.757126,135.638626 126.048332,143.886551 
	C125.772186,148.684845 125.496033,153.483154 125.077225,159.079544 
	C127.216835,168.045502 129.356445,177.011444 131.624542,186.515808 
	C129.526749,185.740417 126.495346,185.301590 124.340599,183.690369 
	C118.798538,179.546188 115.547050,173.775406 113.994217,166.972733 
	C112.932434,162.321289 111.453682,157.765045 110.082611,152.886063 
	C95.919281,163.339920 80.256691,210.780807 92.281151,243.758301 
	C92.561310,244.675385 92.732590,245.643860 93.137665,246.501984 
	C101.609474,264.448486 112.544594,280.374298 131.022751,289.281219 
	C135.631119,291.502502 140.804688,294.602356 147.135422,291.973022 
	C145.460083,290.119202 144.173904,288.639008 142.827927,287.215393 
	C129.473190,273.090454 117.176781,258.484039 120.113091,236.347992 
	C121.722923,232.559784 123.116219,228.655334 125.055229,225.043869 
	C125.773453,223.706131 127.773445,223.056595 129.050705,222.896927 
	C131.015335,227.951202 132.979980,233.005463 134.992813,238.020538 
	C134.992813,238.020538 134.931183,238.012741 135.072891,238.546478 
z"/>
<path fill="#FC3C23" opacity="1.000000" stroke="none" 
	d="
M218.344421,143.033859 
	C218.626678,143.074814 218.833725,143.221725 219.101639,143.901596 
	C219.497345,144.535431 219.756958,144.742249 220.016571,144.949066 
	C220.016571,144.949066 220.007782,144.977539 220.002991,145.346832 
	C220.927887,147.207443 221.770889,148.762268 222.806900,150.175644 
	C224.508759,152.497467 226.335785,154.727554 227.722473,156.949829 
	C224.816788,156.329147 221.438766,154.451141 219.947861,155.434448 
	C216.062500,157.996948 212.219055,157.815735 208.108963,157.482224 
	C202.099609,156.994568 196.055939,156.757874 190.095642,155.923141 
	C187.726410,155.591339 186.201431,155.224289 185.676849,157.994736 
	C182.243515,156.557846 179.123596,155.282074 176.003677,154.006287 
	C176.003677,154.006287 175.999313,154.000824 175.766541,153.809723 
	C174.419907,153.768433 173.306061,153.918228 171.841736,154.167023 
	C164.783875,157.094894 158.575729,161.538239 150.596603,160.144409 
	C149.260971,159.911102 147.450470,160.939133 146.214890,161.860855 
	C142.370697,164.728577 138.424271,164.383667 134.498184,161.827652 
	C128.447815,157.888657 125.254791,153.237320 127.915108,145.871201 
	C128.232315,144.992920 127.956802,143.900558 128.003387,142.637543 
	C128.289047,141.877548 128.527344,141.387451 129.187836,140.925323 
	C131.311584,141.476868 132.983307,142.175674 134.723541,142.472168 
	C136.300140,142.740799 138.015427,142.865707 139.556198,142.531448 
	C142.548294,141.882278 145.444489,140.193466 148.409302,140.121201 
	C160.226028,139.833176 172.056686,140.150635 183.876312,139.929962 
	C188.873230,139.836655 194.248825,141.535248 198.752243,137.640350 
	C199.203674,137.249924 200.339294,137.576385 201.143097,137.680481 
	C204.409821,138.103531 207.670975,138.569580 211.219315,139.188690 
	C213.784439,140.583023 216.064438,141.808441 218.344421,143.033859 
z"/>
<path fill="#FD6321" opacity="1.000000" stroke="none" 
	d="
M231.027863,205.933090 
	C231.027863,205.933090 231.473862,206.007019 231.807587,206.281586 
	C232.744598,207.013046 233.347885,207.469940 234.254211,208.086182 
	C243.406433,208.145233 252.255615,208.044968 261.238342,208.271179 
	C261.255188,212.726471 261.138519,216.855316 260.707428,221.126404 
	C258.104095,222.697571 255.917374,225.110352 253.505997,225.360931 
	C247.560303,225.978790 241.493774,225.886948 235.511475,225.511734 
	C232.424927,225.318146 231.146729,226.203415 230.608871,228.975723 
	C229.110123,227.574417 228.059692,226.127136 226.719772,225.035080 
	C225.275299,223.857834 223.559784,223.013153 221.630127,222.008850 
	C220.853210,221.983353 220.408661,221.972366 219.852081,221.891174 
	C219.468246,221.739716 219.226318,221.799362 218.772446,222.009979 
	C218.530624,222.020020 218.046814,222.035645 217.687653,222.180115 
	C209.757645,222.846893 202.189682,223.602997 194.613510,223.696899 
	C193.073959,223.715988 191.503448,221.239594 190.095032,219.606567 
	C192.822601,214.521805 195.402328,209.744049 198.015656,205.338776 
	C199.908630,211.931366 200.623093,212.268127 206.446411,210.022018 
	C207.316605,209.686356 208.391922,209.928101 209.347870,209.761963 
	C216.577972,208.505432 223.801971,207.213791 231.027863,205.933090 
z"/>
<path fill="#F61F27" opacity="1.000000" stroke="none" 
	d="
M164.750793,94.075844 
	C169.536194,89.202293 174.433212,84.431877 179.066574,79.417824 
	C182.006226,76.236610 184.553635,72.692917 187.881424,69.056595 
	C190.017776,66.845490 191.549652,64.889572 193.081528,62.933655 
	C193.081528,62.933655 193.408997,63.006023 193.744324,63.265999 
	C194.386673,63.680347 194.693665,63.834728 195.000671,63.989105 
	C195.000671,63.989109 195.003052,63.996738 195.052765,64.338486 
	C196.437210,66.336548 197.729019,68.029701 199.113525,69.643318 
	C209.830887,82.134033 210.173630,90.975716 203.873978,104.768723 
	C202.935257,101.433708 202.258484,98.943512 197.863266,99.702003 
	C193.664764,100.426567 189.258423,99.971565 184.943237,99.989059 
	C178.626297,100.014679 172.307098,99.912346 165.993652,100.064186 
	C164.469360,100.100853 161.902451,100.589622 161.638016,101.438423 
	C160.626175,104.686363 158.647995,103.053101 156.999634,102.565750 
	C159.639877,99.515625 162.195343,96.795738 164.750793,94.075844 
z"/>
<path fill="#F94825" opacity="1.000000" stroke="none" 
	d="
M127.956024,142.907440 
	C127.956802,143.900558 128.232315,144.992920 127.915108,145.871201 
	C125.254791,153.237320 128.447815,157.888657 134.498184,161.827652 
	C138.424271,164.383667 142.370697,164.728577 146.214890,161.860855 
	C147.450470,160.939133 149.260971,159.911102 150.596603,160.144409 
	C158.575729,161.538239 164.783875,157.094894 172.065674,154.337845 
	C173.366470,154.657806 174.092850,154.905930 174.819214,155.154053 
	C175.066162,155.833954 175.313110,156.513840 175.414429,157.615570 
	C175.838730,159.036865 176.408691,160.036331 176.978653,161.035797 
	C176.978653,161.035797 176.977432,161.016541 176.869034,161.385406 
	C176.757751,163.561005 176.829697,165.371582 176.736633,167.173645 
	C176.532791,171.120346 176.245285,175.062698 175.684494,178.870026 
	C172.267319,174.464508 169.600159,177.003296 167.707413,178.949051 
	C164.452484,177.475967 161.822433,175.474228 159.017395,175.188095 
	C153.477386,174.623001 147.821960,175.284744 142.249649,174.911163 
	C137.863998,174.617111 134.904922,175.764175 133.481079,180.000793 
	C132.037079,177.497116 130.573349,175.317398 129.734207,172.919144 
	C128.049042,168.103027 126.704811,163.167618 125.219879,158.281448 
	C125.496033,153.483154 125.772186,148.684845 126.399727,143.441956 
	C127.152756,142.967392 127.554390,142.937408 127.956024,142.907440 
z"/>
<path fill="#FD5922" opacity="1.000000" stroke="none" 
	d="
M231.007965,205.619324 
	C223.801971,207.213791 216.577972,208.505432 209.347870,209.761963 
	C208.391922,209.928101 207.316605,209.686356 206.446411,210.022018 
	C200.623093,212.268127 199.908630,211.931366 198.132385,205.048798 
	C198.437332,203.585968 198.659195,202.785629 199.093201,201.694519 
	C199.600494,198.265274 199.895630,195.126785 200.502533,191.939346 
	C201.885483,190.990982 202.956650,190.091599 203.581314,189.567108 
	C205.186432,190.104477 206.605377,191.083572 207.883057,190.924957 
	C215.797440,189.942291 223.749695,187.869751 231.310425,193.272003 
	C231.183838,195.742111 230.767685,197.881638 230.592560,200.040710 
	C230.485138,201.365051 230.746918,202.719330 230.842880,204.060165 
	C230.891281,204.475296 230.939682,204.890411 231.007965,205.619324 
z"/>
<path fill="#EB8C31" opacity="1.000000" stroke="none" 
	d="
M250.791519,262.937683 
	C244.249908,273.765503 236.143311,283.158661 224.146545,287.915466 
	C209.517075,293.716064 209.390396,293.396576 202.855438,292.330963 
	C203.591492,291.467285 204.039642,290.603821 204.749939,290.158295 
	C215.921463,283.151794 224.797226,274.142853 230.264023,261.310242 
	C231.443634,260.578033 232.168625,260.253662 232.888382,260.313904 
	C230.850189,265.517273 228.817230,270.336090 226.668640,275.428925 
	C228.691406,276.593201 230.685440,277.740936 233.120560,279.142548 
	C232.401688,267.299011 232.401688,267.299011 236.213928,265.040039 
	C235.845474,267.710480 235.476501,270.384796 234.913727,274.463654 
	C240.487091,269.853485 244.688797,266.377899 249.207275,262.913452 
	C249.946533,262.928955 250.369034,262.933319 250.791519,262.937683 
z"/>
<path fill="#E28E3C" opacity="1.000000" stroke="none" 
	d="
M119.773354,237.032410 
	C117.176781,258.484039 129.473190,273.090454 142.827927,287.215393 
	C144.173904,288.639008 145.460083,290.119202 147.135422,291.973022 
	C140.804688,294.602356 135.631119,291.502502 131.022751,289.281219 
	C112.544594,280.374298 101.609474,264.448486 93.137665,246.501984 
	C92.732590,245.643860 92.561310,244.675385 92.567940,243.392212 
	C93.319588,243.018295 93.784454,243.010483 94.433914,243.272583 
	C98.026588,249.086273 101.434654,254.630035 104.872314,260.535492 
	C105.148277,261.856873 105.082115,263.138031 105.688416,263.727509 
	C113.442551,271.266571 119.563179,280.707062 130.222473,284.898346 
	C132.466919,285.780853 134.594070,286.961700 136.775253,288.005066 
	C137.156342,287.504608 137.537415,287.004120 137.918488,286.503632 
	C136.205627,284.441895 134.479980,282.390594 132.783188,280.315735 
	C130.673965,277.736572 128.269577,275.330597 126.563034,272.505341 
	C123.519745,267.467072 120.904274,262.170349 118.068161,256.610718 
	C118.003662,249.821045 117.980911,243.402390 118.260574,236.996124 
	C118.966431,237.016479 119.369896,237.024460 119.773354,237.032410 
z"/>
<path fill="#D67047" opacity="1.000000" stroke="none" 
	d="
M94.249313,243.002655 
	C93.784454,243.010483 93.319588,243.018295 92.506104,243.035370 
	C80.256691,210.780807 95.919281,163.339920 110.082611,152.886063 
	C111.453682,157.765045 112.932434,162.321289 113.994217,166.972733 
	C115.547050,173.775406 118.798538,179.546188 124.340599,183.690369 
	C126.495346,185.301590 129.526749,185.740417 131.624542,186.515808 
	C129.356445,177.011444 127.216835,168.045502 125.148552,158.680496 
	C126.704811,163.167618 128.049042,168.103027 129.734207,172.919144 
	C130.573349,175.317398 132.037079,177.497116 133.528778,180.405212 
	C133.913513,182.701981 133.987793,184.369202 134.012909,186.269867 
	C133.963760,186.503296 133.896759,186.975632 133.720169,187.126465 
	C133.322372,187.497360 133.137024,187.744370 132.966400,188.212265 
	C132.945251,188.406250 132.954498,188.796402 132.572006,188.812134 
	C130.601212,188.411011 128.947235,188.157608 127.435501,187.550186 
	C118.940460,184.136703 115.172165,176.817810 112.095978,168.496613 
	C111.150070,164.591370 110.305412,161.062134 109.460754,157.532913 
	C108.875847,157.469376 108.290939,157.405838 107.706032,157.342300 
	C105.991554,161.163757 104.277084,164.985214 102.253967,168.956757 
	C99.228683,175.715759 96.512039,182.324677 93.600189,189.261597 
	C92.898521,194.043106 92.392052,198.496582 91.690872,203.279388 
	C91.281311,210.068588 91.066460,216.528458 90.844955,223.442108 
	C91.975304,230.264816 93.112305,236.633743 94.249313,243.002655 
z"/>
<path fill="#DA5F3A" opacity="1.000000" stroke="none" 
	d="
M233.951157,207.926849 
	C233.347885,207.469940 232.744598,207.013046 232.033630,206.280670 
	C245.014938,198.804169 248.853714,186.290756 251.081543,172.809326 
	C251.256317,171.751617 252.128326,170.809128 252.676285,169.813080 
	C253.546707,170.460052 254.797714,170.917160 255.229645,171.782913 
	C260.468811,182.284210 263.925873,193.407623 263.850769,205.148758 
	C263.781433,215.984467 262.524902,226.812576 261.241760,237.558838 
	C260.418091,236.286499 260.143890,235.099396 259.904938,233.488251 
	C260.300720,229.037537 260.661285,225.010834 261.021851,220.984146 
	C261.138519,216.855316 261.255188,212.726471 261.228485,207.836975 
	C260.172791,197.023224 259.217041,186.981110 253.746567,176.584122 
	C250.114761,189.992920 246.158905,201.697235 233.951157,207.926849 
z"/>
<path fill="#EC772E" opacity="1.000000" stroke="none" 
	d="
M119.943222,236.690216 
	C119.369896,237.024460 118.966431,237.016479 118.278305,236.599976 
	C119.342186,232.135757 120.690727,228.080048 122.219330,223.735046 
	C124.419235,220.990982 126.361000,218.152466 130.172470,219.480087 
	C133.708694,220.711823 135.414337,223.012985 134.749237,227.165024 
	C134.551804,228.397552 136.807327,231.211578 137.889038,231.186096 
	C139.575836,231.146347 141.793655,229.661484 142.750870,228.138214 
	C144.269104,225.722168 144.932587,222.768982 145.963928,220.505524 
	C146.729507,229.675995 147.488861,238.384018 148.291428,247.587585 
	C145.179535,246.269073 142.514343,245.139832 139.849167,244.010590 
	C139.544678,243.962570 139.307037,243.810257 138.973465,243.033203 
	C138.140762,242.014862 137.470825,241.516937 136.800888,241.018997 
	C136.545883,240.570175 136.290863,240.121368 135.870697,239.176346 
	C135.447433,238.457672 135.189301,238.235214 134.931183,238.012741 
	C134.931183,238.012741 134.992813,238.020538 134.971985,237.657043 
	C133.030380,232.226761 131.109634,227.159988 129.188873,222.093201 
	C127.773445,223.056595 125.773453,223.706131 125.055229,225.043869 
	C123.116219,228.655334 121.722923,232.559784 119.943222,236.690216 
z"/>
<path fill="#EC772E" opacity="1.000000" stroke="none" 
	d="
M259.869720,233.912277 
	C260.143890,235.099396 260.418091,236.286499 260.899475,237.776245 
	C258.987305,246.654861 256.533875,255.093460 250.963623,262.629272 
	C250.369034,262.933319 249.946533,262.928955 249.246552,262.532684 
	C249.767166,259.392487 250.565277,256.644196 251.153214,254.619675 
	C247.739227,253.170532 244.660675,251.863770 241.891327,250.688263 
	C239.384644,251.117889 236.721756,251.574280 234.038895,251.574356 
	C234.017883,248.071503 234.016846,245.024979 234.363312,242.081512 
	C239.295502,243.114563 243.874084,244.076187 248.467224,244.962372 
	C251.103302,245.470947 253.552917,245.874023 254.993744,242.493332 
	C256.275238,239.486450 258.218506,236.761597 259.869720,233.912277 
z"/>
<path fill="#DA5F3A" opacity="1.000000" stroke="none" 
	d="
M230.993317,203.735168 
	C230.746918,202.719330 230.485138,201.365051 230.592560,200.040710 
	C230.767685,197.881638 231.183838,195.742111 231.352890,192.927643 
	C236.389542,188.413223 236.927002,182.778061 237.091248,176.546494 
	C237.867447,167.958664 234.816391,161.617264 228.110031,156.996307 
	C226.335785,154.727554 224.508759,152.497467 222.806900,150.175644 
	C221.770889,148.762268 220.927887,147.207443 220.012955,145.353760 
	C228.263062,150.675797 235.686569,157.327042 239.097183,166.907776 
	C240.599564,171.128113 240.527618,176.326233 239.765686,180.843475 
	C238.417618,188.835800 236.718521,196.929199 230.993317,203.735168 
z"/>
<path fill="#D67047" opacity="1.000000" stroke="none" 
	d="
M234.015793,241.978439 
	C234.016846,245.024979 234.017883,248.071503 234.021133,251.978775 
	C233.646744,255.202774 233.270172,257.566040 232.893600,259.929321 
	C232.168625,260.253662 231.443634,260.578033 230.432220,260.987274 
	C234.614029,247.670319 231.894485,230.867523 221.961990,224.201431 
	C221.263824,228.524139 221.104752,232.750687 219.854324,236.625015 
	C216.503204,247.008331 210.915695,255.031296 201.079178,253.888138 
	C198.383759,253.574890 195.855896,251.819855 193.166473,250.315613 
	C193.081818,249.904770 193.227890,249.742950 193.605545,249.816833 
	C195.697189,250.409058 197.383072,251.067352 199.130661,251.418488 
	C203.652420,252.327042 207.925461,252.138702 211.290741,247.833984 
	C212.067825,246.776001 212.599564,245.908600 213.391083,244.857697 
	C214.437500,243.447647 215.224106,242.221100 216.210632,240.665543 
	C216.647827,238.250473 216.885101,236.164444 217.290024,233.916718 
	C217.669312,233.525314 217.852814,233.274979 218.130051,232.713608 
	C218.476776,231.616730 218.701645,230.810242 218.953918,229.671646 
	C218.988388,228.895264 218.995468,228.451004 219.016693,227.630585 
	C219.052109,226.501923 219.073395,225.749420 219.305115,224.790680 
	C220.331207,223.730774 221.146866,222.877075 221.962524,222.023376 
	C223.559784,223.013153 225.275299,223.857834 226.719772,225.035080 
	C228.059692,226.127136 229.110123,227.574417 230.635406,228.963287 
	C230.982788,229.061310 230.956543,229.013092 231.100403,229.220703 
	C231.490906,229.657684 231.737549,229.887054 232.049042,230.497833 
	C232.747864,234.578979 233.381821,238.278717 234.015793,241.978439 
z"/>
<path fill="#D67047" opacity="1.000000" stroke="none" 
	d="
M139.885132,244.382355 
	C142.514343,245.139832 145.179535,246.269073 148.291428,247.587585 
	C147.488861,238.384018 146.729507,229.675995 146.003540,220.119751 
	C147.075363,216.567444 148.113800,213.863373 149.424179,210.963379 
	C153.853882,206.741898 158.046494,202.751434 162.154953,198.676132 
	C164.255188,196.592865 166.204651,194.357605 168.542679,192.084824 
	C170.563934,190.026077 172.264771,188.073563 174.043304,186.334244 
	C174.803177,186.691391 175.485336,186.835358 176.167511,186.979324 
	C173.341080,190.353836 170.649582,193.853577 167.659180,197.075912 
	C162.000290,203.173660 155.527832,208.633133 150.589752,215.250534 
	C145.581451,221.962067 146.189224,230.004242 148.902573,237.804611 
	C150.276443,241.754211 151.427628,245.781265 152.879303,250.410553 
	C146.856735,251.733459 143.571014,247.792252 139.885132,244.382355 
z"/>
<path fill="#C73A39" opacity="1.000000" stroke="none" 
	d="
M204.076859,105.072121 
	C210.173630,90.975716 209.830887,82.134033 199.113525,69.643318 
	C197.729019,68.029701 196.437210,66.336548 195.056244,64.339645 
	C203.297745,69.285652 208.276260,76.702255 209.999664,86.450661 
	C211.458359,94.701691 207.617950,101.910286 205.899872,109.518173 
	C203.215073,121.406944 204.775864,131.787811 215.121811,139.608398 
	C216.172424,140.402557 216.995453,141.497787 218.134247,142.743591 
	C216.064438,141.808441 213.784439,140.583023 211.073792,138.921432 
	C209.767838,137.654373 208.892563,136.823486 207.811096,135.795654 
	C207.083649,135.382324 206.562378,135.165939 206.025848,134.959488 
	C206.010574,134.969437 206.035126,134.962906 205.901398,134.771088 
	C205.566208,134.339310 205.338898,134.127045 205.007446,133.566437 
	C204.229828,125.794701 203.530518,118.398979 202.876480,110.644295 
	C202.959991,109.563530 202.998215,108.841721 203.200989,107.960205 
	C203.568802,107.572701 203.741531,107.323708 203.922943,106.723625 
	C204.000381,105.953178 204.038620,105.512650 204.076859,105.072121 
z"/>
<path fill="#C73A39" opacity="1.000000" stroke="none" 
	d="
M128.003387,142.637543 
	C127.554390,142.937408 127.152756,142.967392 126.449707,143.021988 
	C125.757126,135.638626 128.994949,129.517776 132.785965,123.479477 
	C140.225311,111.630142 150.566650,102.785225 161.802612,94.822708 
	C162.426514,94.380562 163.302673,94.294395 164.406113,94.059189 
	C162.195343,96.795738 159.639877,99.515625 157.006622,102.588776 
	C156.928802,102.942024 156.971603,102.947083 156.680878,103.005356 
	C155.875229,103.353836 155.360291,103.644058 154.546539,103.991180 
	C153.471161,104.658257 152.694595,105.268433 151.642212,106.070602 
	C148.280746,109.606499 145.083359,112.855789 142.145462,116.324829 
	C139.876587,119.003845 137.933121,121.958427 135.579651,125.009499 
	C133.131439,130.451462 130.948547,135.674408 128.765656,140.897369 
	C128.527344,141.387451 128.289047,141.877548 128.003387,142.637543 
z"/>
<path fill="#DA5F3A" opacity="1.000000" stroke="none" 
	d="
M200.190765,191.988312 
	C199.895630,195.126785 199.600494,198.265274 198.912262,201.505432 
	C198.070679,201.058746 197.622177,200.510406 197.173676,199.962051 
	C200.655869,182.370239 194.797852,168.905685 181.104706,157.993164 
	C179.578278,156.776718 177.909149,155.739334 176.154938,154.312592 
	C179.123596,155.282074 182.243515,156.557846 185.857422,158.259369 
	C190.212173,163.105820 194.072952,167.526520 197.957581,172.287918 
	C198.299545,173.466888 198.617691,174.305145 198.924942,175.351730 
	C198.914062,175.560059 198.935089,175.976746 198.946716,176.392609 
	C199.369156,181.868408 199.779953,186.928360 200.190765,191.988312 
z"/>
<path fill="#D67047" opacity="1.000000" stroke="none" 
	d="
M197.094788,200.335571 
	C197.622177,200.510406 198.070679,201.058746 198.700104,201.796188 
	C198.659195,202.785629 198.437332,203.585968 198.098770,204.676300 
	C195.402328,209.744049 192.822601,214.521805 189.818359,219.808563 
	C184.716995,225.012436 183.030441,230.479706 185.158081,237.257355 
	C186.467148,239.400833 187.723740,241.205643 188.987411,243.006760 
	C188.994492,243.003052 188.991547,243.011124 189.132767,243.199890 
	C189.480789,243.628296 189.716751,243.834610 189.983810,244.012070 
	C189.985748,244.016571 189.976700,244.028900 189.992310,244.371307 
	C190.102509,245.389557 190.197113,246.065384 190.206085,246.818268 
	C190.120468,246.895309 189.949402,247.049576 189.949402,247.049576 
	C180.845078,240.566101 179.522476,229.186874 186.315125,219.039001 
	C190.243134,213.170731 193.472260,206.834656 197.094788,200.335571 
z"/>
<path fill="#DA5F3A" opacity="1.000000" stroke="none" 
	d="
M176.465515,186.784973 
	C175.485336,186.835358 174.803177,186.691391 174.273956,186.037018 
	C174.948593,183.353348 175.470276,181.180084 175.991974,179.006836 
	C176.245285,175.062698 176.532791,171.120346 176.736633,167.173645 
	C176.829697,165.371582 176.757751,163.561005 176.859344,161.384552 
	C177.615326,163.090240 178.272614,165.165680 178.700714,167.973312 
	C178.588272,171.809631 178.705002,174.913757 178.821732,178.017868 
	C178.135666,180.875458 177.449600,183.733032 176.465515,186.784973 
z"/>
<path fill="#D67047" opacity="1.000000" stroke="none" 
	d="
M129.119781,222.495056 
	C131.109634,227.159988 133.030380,232.226761 134.947876,237.676636 
	C132.979980,233.005463 131.015335,227.951202 129.119781,222.495056 
z"/>
<path fill="#C73A39" opacity="1.000000" stroke="none" 
	d="
M192.949921,62.632824 
	C191.549652,64.889572 190.017776,66.845490 188.154541,68.915771 
	C188.557266,66.948708 189.144714,64.793617 190.127686,62.837227 
	C190.376007,62.342968 191.887360,62.483284 192.949921,62.632824 
z"/>
<path fill="#D67047" opacity="1.000000" stroke="none" 
	d="
M179.016998,177.658325 
	C178.705002,174.913757 178.588272,171.809631 178.654846,168.358887 
	C178.962845,171.107758 179.087555,174.203278 179.016998,177.658325 
z"/>
<path fill="#DA5F3A" opacity="1.000000" stroke="none" 
	d="
M176.946991,160.677536 
	C176.408691,160.036331 175.838730,159.036865 175.508728,157.883987 
	C176.137573,158.593475 176.526443,159.456375 176.946991,160.677536 
z"/>
<path fill="#D67047" opacity="1.000000" stroke="none" 
	d="
M193.008698,249.985611 
	C191.961578,249.291840 190.987579,248.517212 189.981506,247.396088 
	C189.949402,247.049576 190.120468,246.895309 190.479431,246.959503 
	C191.634872,247.930099 192.431381,248.836533 193.227890,249.742950 
	C193.227890,249.742950 193.081818,249.904770 193.008698,249.985611 
z"/>
<path fill="#DA5F3A" opacity="1.000000" stroke="none" 
	d="
M174.928391,154.876678 
	C174.092850,154.905930 173.366470,154.657806 172.416153,154.238861 
	C173.306061,153.918228 174.419907,153.768433 175.762924,153.807983 
	C175.673904,154.197998 175.355743,154.398651 174.928391,154.876678 
z"/>
<path fill="#D67047" opacity="1.000000" stroke="none" 
	d="
M136.853806,241.382629 
	C137.470825,241.516937 138.140762,242.014862 138.897049,242.830383 
	C138.291168,242.680725 137.598953,242.213486 136.853806,241.382629 
z"/>
<path fill="#C73A39" opacity="1.000000" stroke="none" 
	d="
M219.982224,144.686584 
	C219.756958,144.742249 219.497345,144.535431 219.167694,144.087234 
	C219.381058,144.038605 219.664459,144.231354 219.982224,144.686584 
z"/>
<path fill="#C73A39" opacity="1.000000" stroke="none" 
	d="
M194.922241,63.694733 
	C194.693665,63.834728 194.386673,63.680347 193.897018,63.335320 
	C194.090851,63.229900 194.467331,63.315128 194.922241,63.694733 
z"/>
<path fill="#D67047" opacity="1.000000" stroke="none" 
	d="
M135.002045,238.279602 
	C135.189301,238.235214 135.447433,238.457672 135.845963,238.895279 
	C135.681885,238.922440 135.377380,238.734451 135.002045,238.279602 
z"/>
<path fill="#FB3323" opacity="1.000000" stroke="none" 
	d="
M129.187836,140.925323 
	C130.948547,135.674408 133.131439,130.451462 135.759857,125.326202 
	C137.993179,128.420319 139.663330,128.445251 141.841125,125.608192 
	C142.531952,124.708237 144.453766,124.282600 145.737366,124.407791 
	C148.284744,124.656242 150.772095,125.877373 153.298309,125.923279 
	C163.561646,126.109779 173.865799,125.483826 184.084961,126.181610 
	C191.289658,126.673561 199.645126,125.674416 204.223053,134.188019 
	C204.975494,134.565201 205.505310,134.764053 206.035126,134.962906 
	C206.035126,134.962906 206.010574,134.969437 206.079407,135.179230 
	C206.771255,135.590225 207.394272,135.791412 208.017288,135.992584 
	C208.892563,136.823486 209.767838,137.654373 210.788651,138.752502 
	C207.670975,138.569580 204.409821,138.103531 201.143097,137.680481 
	C200.339294,137.576385 199.203674,137.249924 198.752243,137.640350 
	C194.248825,141.535248 188.873230,139.836655 183.876312,139.929962 
	C172.056686,140.150635 160.226028,139.833176 148.409302,140.121201 
	C145.444489,140.193466 142.548294,141.882278 139.556198,142.531448 
	C138.015427,142.865707 136.300140,142.740799 134.723541,142.472168 
	C132.983307,142.175674 131.311584,141.476868 129.187836,140.925323 
z"/>
<path fill="#F94825" opacity="1.000000" stroke="none" 
	d="
M197.933746,171.947205 
	C194.072952,167.526520 190.212173,163.105820 186.170807,158.420502 
	C186.201431,155.224289 187.726410,155.591339 190.095642,155.923141 
	C196.055939,156.757874 202.099609,156.994568 208.108963,157.482224 
	C212.219055,157.815735 216.062500,157.996948 219.947861,155.434448 
	C221.438766,154.451141 224.816788,156.329147 227.722473,156.949829 
	C234.816391,161.617264 237.867447,167.958664 236.732269,176.599686 
	C235.041504,178.558151 233.718750,180.014130 232.812149,181.012024 
	C231.269226,179.954147 230.077988,178.631699 228.642746,178.265472 
	C226.156158,177.630966 223.428436,177.021652 220.962341,177.413040 
	C215.374359,178.299866 208.067764,172.281891 204.774826,181.222046 
	C202.710556,179.367889 200.822815,177.672318 198.935089,175.976746 
	C198.935089,175.976746 198.914062,175.560059 198.916153,175.005219 
	C198.590073,173.615982 198.261917,172.781601 197.933746,171.947205 
z"/>
<path fill="#FD6E20" opacity="1.000000" stroke="none" 
	d="
M185.105606,236.918686 
	C183.030441,230.479706 184.716995,225.012436 189.670532,220.115601 
	C191.503448,221.239594 193.073959,223.715988 194.613510,223.696899 
	C202.189682,223.602997 209.757645,222.846893 217.706497,222.501648 
	C218.421219,223.451462 218.757950,224.224182 219.094681,224.996902 
	C219.073395,225.749420 219.052109,226.501923 218.879761,227.807907 
	C218.794632,228.908844 218.860565,229.456299 218.926514,230.003769 
	C218.701645,230.810242 218.476776,231.616730 217.957855,232.871750 
	C217.446411,233.546646 217.265945,233.799347 217.122375,234.078400 
	C216.885101,236.164444 216.647827,238.250473 215.918762,240.763794 
	C214.661758,242.474457 213.896530,243.757843 213.131302,245.041214 
	C212.599564,245.908600 212.067825,246.776001 210.892303,247.819809 
	C207.143387,247.057983 203.552048,244.664795 201.040924,245.503998 
	C196.684982,246.959732 193.443192,246.178009 189.976700,244.028900 
	C189.976700,244.028900 189.985748,244.016571 189.840454,243.825409 
	C189.487015,243.396744 189.252472,243.189041 188.991547,243.011124 
	C188.991547,243.011124 188.994492,243.003052 188.991241,242.610214 
	C189.094635,239.424805 188.478775,237.161591 185.105606,236.918686 
z"/>
<path fill="#FD6E20" opacity="1.000000" stroke="none" 
	d="
M234.363312,242.081512 
	C233.381821,238.278717 232.747864,234.578979 231.900299,230.292557 
	C231.443329,229.474930 231.199936,229.244019 230.956543,229.013092 
	C230.956543,229.013092 230.982788,229.061310 230.956253,229.073746 
	C231.146729,226.203415 232.424927,225.318146 235.511475,225.511734 
	C241.493774,225.886948 247.560303,225.978790 253.505997,225.360931 
	C255.917374,225.110352 258.104095,222.697571 260.707428,221.126404 
	C260.661285,225.010834 260.300720,229.037537 259.904938,233.488251 
	C258.218506,236.761597 256.275238,239.486450 254.993744,242.493332 
	C253.552917,245.874023 251.103302,245.470947 248.467224,244.962372 
	C243.874084,244.076187 239.295502,243.114563 234.363312,242.081512 
z"/>
<path fill="#FD5922" opacity="1.000000" stroke="none" 
	d="
M234.254211,208.086182 
	C246.158905,201.697235 250.114761,189.992920 253.746567,176.584122 
	C259.217041,186.981110 260.172791,197.023224 261.094940,207.510513 
	C252.255615,208.044968 243.406433,208.145233 234.254211,208.086182 
z"/>
<path fill="#EC772E" opacity="1.000000" stroke="none" 
	d="
M219.305115,224.790680 
	C218.757950,224.224182 218.421219,223.451462 218.065643,222.357193 
	C218.046814,222.035645 218.530624,222.020020 219.009918,222.002777 
	C219.489212,221.985535 219.964127,221.961365 219.964127,221.961365 
	C220.408661,221.972366 220.853210,221.983353 221.630127,222.008850 
	C221.146866,222.877075 220.331207,223.730774 219.305115,224.790680 
z"/>
<path fill="#FD6E20" opacity="1.000000" stroke="none" 
	d="
M219.852081,221.891174 
	C219.964127,221.961365 219.489212,221.985535 219.251740,221.992737 
	C219.226318,221.799362 219.468246,221.739716 219.852081,221.891174 
z"/>
<path fill="#FC2223" opacity="1.000000" stroke="none" 
	d="
M151.918030,105.878616 
	C152.694595,105.268433 153.471161,104.658257 154.844147,103.939651 
	C155.950897,103.536514 156.461258,103.241798 156.971603,102.947083 
	C156.971603,102.947083 156.928802,102.942024 156.921814,102.919006 
	C158.647995,103.053101 160.626175,104.686363 161.638016,101.438423 
	C161.902451,100.589622 164.469360,100.100853 165.993652,100.064186 
	C172.307098,99.912346 178.626297,100.014679 184.943237,99.989059 
	C189.258423,99.971565 193.664764,100.426567 197.863266,99.702003 
	C202.258484,98.943512 202.935257,101.433708 203.873978,104.768723 
	C204.038620,105.512650 204.000381,105.953178 203.761780,106.882355 
	C203.355453,107.598923 203.180450,107.848557 203.036423,108.119911 
	C202.998215,108.841721 202.959991,109.563530 202.531006,110.678185 
	C200.565063,111.529388 198.999130,112.347672 197.413208,112.388428 
	C186.012680,112.681427 174.607224,112.775627 163.205383,113.027008 
	C159.811020,113.101845 156.423279,113.477234 152.870178,113.726280 
	C152.512375,110.777252 152.215210,108.327934 151.918030,105.878616 
z"/>
<path fill="#FB5121" opacity="1.000000" stroke="none" 
	d="
M175.684509,178.870026 
	C175.470276,181.180084 174.948593,183.353348 174.196259,185.823822 
	C172.264771,188.073563 170.563934,190.026077 168.198669,191.859344 
	C161.441711,188.042419 154.762558,190.078949 148.951630,191.468903 
	C145.750092,192.234695 143.876190,193.933121 141.846069,190.596832 
	C138.052429,192.568954 138.052429,192.568954 132.987534,188.018280 
	C133.137024,187.744370 133.322372,187.497360 133.818787,187.031128 
	C134.240143,186.533676 134.229492,186.284164 134.062057,186.036438 
	C133.987793,184.369202 133.913513,182.701981 133.791565,180.630341 
	C134.904922,175.764175 137.863998,174.617111 142.249649,174.911163 
	C147.821960,175.284744 153.477386,174.623001 159.017395,175.188095 
	C161.822433,175.474228 164.452484,177.475967 167.707413,178.949051 
	C169.600159,177.003296 172.267319,174.464508 175.684509,178.870026 
z"/>
<path fill="#FB5121" opacity="1.000000" stroke="none" 
	d="
M198.946716,176.392609 
	C200.822815,177.672318 202.710556,179.367889 204.774826,181.222046 
	C208.067764,172.281891 215.374359,178.299866 220.962341,177.413040 
	C223.428436,177.021652 226.156158,177.630966 228.642746,178.265472 
	C230.077988,178.631699 231.269226,179.954147 232.812149,181.012024 
	C233.718750,180.014130 235.041504,178.558151 236.723236,177.048981 
	C236.927002,182.778061 236.389542,188.413223 231.165039,192.605316 
	C223.749695,187.869751 215.797440,189.942291 207.883057,190.924957 
	C206.605377,191.083572 205.186432,190.104477 203.581314,189.567108 
	C202.956650,190.091599 201.885483,190.990982 200.502533,191.939346 
	C199.779953,186.928360 199.369156,181.868408 198.946716,176.392609 
z"/>
<path fill="#FB831E" opacity="1.000000" stroke="none" 
	d="
M232.888382,260.313904 
	C233.270172,257.566040 233.646744,255.202774 234.041092,252.435089 
	C236.721756,251.574280 239.384644,251.117889 241.891327,250.688263 
	C244.660675,251.863770 247.739227,253.170532 251.153214,254.619675 
	C250.565277,256.644196 249.767166,259.392487 248.929779,262.521545 
	C244.688797,266.377899 240.487091,269.853485 234.913727,274.463654 
	C235.476501,270.384796 235.845474,267.710480 236.213928,265.040039 
	C232.401688,267.299011 232.401688,267.299011 233.120560,279.142548 
	C230.685440,277.740936 228.691406,276.593201 226.668640,275.428925 
	C228.817230,270.336090 230.850189,265.517273 232.888382,260.313904 
z"/>
<path fill="#FD6E20" opacity="1.000000" stroke="none" 
	d="
M122.039276,224.024353 
	C120.690727,228.080048 119.342186,232.135757 117.975906,236.587601 
	C117.980911,243.402390 118.003662,249.821045 117.767761,256.501160 
	C112.574654,255.254700 108.781532,257.984741 104.842712,260.173798 
	C101.434654,254.630035 98.026588,249.086273 94.433914,243.272598 
	C93.112305,236.633743 91.975304,230.264816 91.125313,223.551361 
	C91.839691,224.649017 92.267044,226.091217 92.756294,227.742279 
	C99.350792,224.130249 106.175438,224.097733 113.208847,226.360626 
	C114.177094,226.672150 115.516937,225.854355 116.678017,225.534958 
	C118.468147,225.042496 120.252472,224.528946 122.039276,224.024353 
z"/>
<path fill="#FB831E" opacity="1.000000" stroke="none" 
	d="
M104.872314,260.535492 
	C108.781532,257.984741 112.574654,255.254700 117.809509,256.872162 
	C120.904274,262.170349 123.519745,267.467072 126.563034,272.505341 
	C128.269577,275.330597 130.673965,277.736572 132.783188,280.315735 
	C134.479980,282.390594 136.205627,284.441895 137.918488,286.503632 
	C137.537415,287.004120 137.156342,287.504608 136.775253,288.005066 
	C134.594070,286.961700 132.466919,285.780853 130.222473,284.898346 
	C119.563179,280.707062 113.442551,271.266571 105.688416,263.727509 
	C105.082115,263.138031 105.148277,261.856873 104.872314,260.535492 
z"/>
<path fill="#FD5922" opacity="1.000000" stroke="none" 
	d="
M132.966400,188.212265 
	C138.052429,192.568954 138.052429,192.568954 141.846069,190.596832 
	C143.876190,193.933121 145.750092,192.234695 148.951630,191.468903 
	C154.762558,190.078949 161.441711,188.042419 167.878250,191.965576 
	C166.204651,194.357605 164.255188,196.592865 162.154953,198.676132 
	C158.046494,202.751434 153.853882,206.741898 149.200592,210.652527 
	C147.715988,207.357422 145.584702,206.955032 142.484467,207.288559 
	C136.982681,207.880432 131.419373,208.031342 125.878799,208.091980 
	C120.997360,208.145401 116.100121,207.537079 111.230873,207.735886 
	C104.253983,208.020752 97.254990,208.942993 91.885582,202.950073 
	C92.392052,198.496582 92.898521,194.043106 94.047600,189.291809 
	C104.261292,190.217896 113.807701,191.843384 123.417709,192.433777 
	C126.510475,192.623764 129.770813,190.086166 132.954498,188.796402 
	C132.954498,188.796402 132.945251,188.406250 132.966400,188.212265 
z"/>
<path fill="#FD6321" opacity="1.000000" stroke="none" 
	d="
M91.690872,203.279388 
	C97.254990,208.942993 104.253983,208.020752 111.230873,207.735886 
	C116.100121,207.537079 120.997360,208.145401 125.878799,208.091980 
	C131.419373,208.031342 136.982681,207.880432 142.484467,207.288559 
	C145.584702,206.955032 147.715988,207.357422 148.928665,210.848434 
	C148.113800,213.863373 147.075363,216.567444 145.997299,219.657288 
	C144.932587,222.768982 144.269104,225.722168 142.750870,228.138214 
	C141.793655,229.661484 139.575836,231.146347 137.889038,231.186096 
	C136.807327,231.211578 134.551804,228.397552 134.749237,227.165024 
	C135.414337,223.012985 133.708694,220.711823 130.172470,219.480087 
	C126.361000,218.152466 124.419235,220.990982 122.219322,223.735046 
	C120.252472,224.528946 118.468147,225.042496 116.678017,225.534958 
	C115.516937,225.854355 114.177094,226.672150 113.208847,226.360626 
	C106.175438,224.097733 99.350792,224.130249 92.756294,227.742279 
	C92.267044,226.091217 91.839691,224.649017 91.131973,223.097565 
	C91.066460,216.528458 91.281311,210.068588 91.690872,203.279388 
M95.525436,208.498077 
	C95.525436,208.498077 95.486832,208.511536 95.525436,208.498077 
z"/>
<path fill="#FB5121" opacity="1.000000" stroke="none" 
	d="
M132.572006,188.812134 
	C129.770813,190.086166 126.510475,192.623764 123.417709,192.433777 
	C113.807701,191.843384 104.261292,190.217896 94.242798,188.963791 
	C96.512039,182.324677 99.228683,175.715759 102.598877,169.107025 
	C104.312798,170.278915 105.373161,171.450653 106.712685,172.930847 
	C108.605743,171.530106 110.401482,170.201355 112.197220,168.872620 
	C115.172165,176.817810 118.940460,184.136703 127.435501,187.550186 
	C128.947235,188.157608 130.601212,188.411011 132.572006,188.812134 
z"/>
<path fill="#F94825" opacity="1.000000" stroke="none" 
	d="
M112.095978,168.496613 
	C110.401482,170.201355 108.605743,171.530106 106.712685,172.930847 
	C105.373161,171.450653 104.312798,170.278915 102.907516,168.956940 
	C104.277084,164.985214 105.991554,161.163757 107.706032,157.342300 
	C108.290939,157.405838 108.875847,157.469376 109.460754,157.532913 
	C110.305412,161.062134 111.150070,164.591370 112.095978,168.496613 
z"/>
<path fill="#F94825" opacity="1.000000" stroke="none" 
	d="
M134.012909,186.269867 
	C134.229492,186.284164 134.240143,186.533676 133.995377,186.880295 
	C133.896759,186.975632 133.963760,186.503296 134.012909,186.269867 
z"/>
<path fill="#EC772E" opacity="1.000000" stroke="none" 
	d="
M189.992310,244.371307 
	C193.443192,246.178009 196.684982,246.959732 201.040924,245.503998 
	C203.552048,244.664795 207.143387,247.057983 210.646942,248.010406 
	C207.925461,252.138702 203.652420,252.327042 199.130661,251.418488 
	C197.383072,251.067352 195.697189,250.409058 193.605545,249.816833 
	C192.431381,248.836533 191.634872,247.930099 190.565048,246.882446 
	C190.197113,246.065384 190.102509,245.389557 189.992310,244.371307 
z"/>
<path fill="#EC772E" opacity="1.000000" stroke="none" 
	d="
M213.391083,244.857697 
	C213.896530,243.757843 214.661758,242.474457 215.718842,241.092834 
	C215.224106,242.221100 214.437500,243.447647 213.391083,244.857697 
z"/>
<path fill="#EC772E" opacity="1.000000" stroke="none" 
	d="
M218.953903,229.671646 
	C218.860565,229.456299 218.794632,228.908844 218.865616,228.184052 
	C218.995468,228.451004 218.988388,228.895264 218.953903,229.671646 
z"/>
<path fill="#EC772E" opacity="1.000000" stroke="none" 
	d="
M217.290009,233.916718 
	C217.265945,233.799347 217.446411,233.546646 217.835983,233.162155 
	C217.852814,233.274979 217.669312,233.525314 217.290009,233.916718 
z"/>
<path fill="#FD6321" opacity="1.000000" stroke="none" 
	d="
M231.100403,229.220703 
	C231.199936,229.244019 231.443329,229.474930 231.835449,229.911133 
	C231.737549,229.887054 231.490906,229.657684 231.100403,229.220703 
z"/>
<path fill="#FA2B26" opacity="1.000000" stroke="none" 
	d="
M151.642212,106.070602 
	C152.215210,108.327934 152.512375,110.777252 152.870178,113.726280 
	C156.423279,113.477234 159.811020,113.101845 163.205383,113.027008 
	C174.607224,112.775627 186.012680,112.681427 197.413208,112.388428 
	C198.999130,112.347672 200.565063,111.529388 202.485718,111.037140 
	C203.530518,118.398979 204.229828,125.794701 204.735809,133.584320 
	C204.361801,133.988678 204.181122,133.999176 204.000427,134.009674 
	C199.645126,125.674416 191.289658,126.673561 184.084961,126.181610 
	C173.865799,125.483826 163.561646,126.109779 153.298309,125.923279 
	C150.772095,125.877373 148.284744,124.656242 145.737366,124.407791 
	C144.453766,124.282600 142.531952,124.708237 141.841125,125.608192 
	C139.663330,128.445251 137.993179,128.420319 136.025177,125.107201 
	C137.933121,121.958427 139.876587,119.003845 142.145462,116.324829 
	C145.083359,112.855789 148.280746,109.606499 151.642212,106.070602 
z"/>
<path fill="#FC3C23" opacity="1.000000" stroke="none" 
	d="
M207.811096,135.795654 
	C207.394272,135.791412 206.771255,135.590225 206.094681,135.169281 
	C206.562378,135.165939 207.083649,135.382324 207.811096,135.795654 
z"/>
<path fill="#FC3C23" opacity="1.000000" stroke="none" 
	d="
M204.223053,134.188019 
	C204.181122,133.999176 204.361801,133.988678 204.814102,133.960327 
	C205.338898,134.127045 205.566208,134.339310 205.901398,134.771088 
	C205.505310,134.764053 204.975494,134.565201 204.223053,134.188019 
z"/>
<path fill="#F61F27" opacity="1.000000" stroke="none" 
	d="
M203.200989,107.960205 
	C203.180450,107.848557 203.355453,107.598923 203.722580,107.212280 
	C203.741531,107.323708 203.568802,107.572701 203.200989,107.960205 
z"/>
<path fill="#F61F27" opacity="1.000000" stroke="none" 
	d="
M156.680878,103.005356 
	C156.461258,103.241798 155.950897,103.536514 155.142944,103.882751 
	C155.360291,103.644058 155.875229,103.353836 156.680878,103.005356 
z"/>
<path fill="#FB5121" opacity="1.000000" stroke="none" 
	d="
M197.957581,172.287918 
	C198.261917,172.781601 198.590073,173.615982 198.927032,174.796890 
	C198.617691,174.305145 198.299545,173.466888 197.957581,172.287918 
z"/>
<path fill="#EC772E" opacity="1.000000" stroke="none" 
	d="
M185.158081,237.257355 
	C188.478775,237.161591 189.094635,239.424805 188.984161,242.613922 
	C187.723740,241.205643 186.467148,239.400833 185.158081,237.257355 
z"/>
<path fill="#EC772E" opacity="1.000000" stroke="none" 
	d="
M189.132767,243.199890 
	C189.252472,243.189041 189.487015,243.396744 189.838516,243.820908 
	C189.716751,243.834610 189.480789,243.628296 189.132767,243.199890 
z"/>
<path fill="#FD5922" opacity="1.000000" stroke="none" 
	d="
M95.506134,208.504807 
	C95.486832,208.511536 95.525436,208.498077 95.506134,208.504807 
z"/>
</svg>